<?xml version="1.0" encoding="iso-8859-1"?>
<!-- Generator: Adobe Illustrator 19.0.0, SVG Export Plug-In . SVG Version: 6.00 Build 0)  -->
<svg version="1.1" id="Capa_1" xmlns="http://www.w3.org/2000/svg" xmlns:xlink="http://www.w3.org/1999/xlink" x="0px" y="0px"
	 viewBox="0 0 512 512" style="enable-background:new 0 0 512 512;" xml:space="preserve">
<g>
	<g>
		<path d="M236,126c-71.682,0-130,58.318-130,130s58.318,130,130,130c71.683,0,130-58.318,130-130S307.683,126,236,126z
			 M246,365.541V356c0-5.523-4.478-10-10-10c-5.523,0-10,4.477-10,10v9.541c-52.69-4.771-94.769-46.851-99.541-99.541H136
			c5.523,0,10-4.477,10-10s-4.477-10-10-10h-9.541c4.772-52.69,46.851-94.769,99.541-99.541V156c0,5.523,4.477,10,10,10
			c5.522,0,10-4.477,10-10v-9.541c52.69,4.771,94.77,46.851,99.541,99.541H336c-5.522,0-10,4.477-10,10s4.478,9.9,10,9.9h9.541
			C340.77,318.59,298.69,360.769,246,365.541z"/>
	</g>
</g>
<g>
	<g>
		<path d="M236,186c-5.523,0-10,4.477-10,10v55.858l-37.071,37.071c-3.905,3.905-3.905,10.237,0,14.143
			c3.904,3.904,10.237,3.905,14.142-0.001l40-40c1.875-1.875,2.929-4.419,2.929-7.071v-60C246,190.477,241.522,186,236,186z"/>
	</g>
</g>
<g>
	<g>
		<path d="M416,226h-12.647c-5.592-31.529-19.83-60.478-41.549-84.344L345.93,8.813C345.328,3.785,341.063,0,336,0
			c-25.262,0-176.263,0-200,0c-5.064,0-9.329,3.785-9.929,8.813l-15.875,132.853C81.673,173.031,66,213.496,66,256
			c0,42.504,15.673,82.968,44.195,114.333l15.875,132.854c0.601,5.028,4.865,8.813,9.929,8.813c25.262,0,176.263,0,200,0
			c5.063,0,9.328-3.785,9.93-8.813l15.874-132.843c21.72-23.867,35.959-52.818,41.549-84.344H416c16.575,0,30-13.424,30-30
			C446,239.458,432.542,226,416,226z M306,20h21.124l12.058,100.91c-10.28-7.85-21.456-14.535-33.182-19.852
			C306,77.898,306,42.706,306,20z M186,20h100v23H186V20z M186,63h100v30.483C269.874,88.52,253.116,86,236,86
			c-17.116,0-33.874,2.52-50,7.483V63z M144.876,20H166c0,22.705,0,57.897,0,81.058c-11.725,5.317-22.901,12.002-33.182,19.853
			L144.876,20z M166,492h-21.124l-12.058-100.911c10.281,7.851,21.457,14.535,33.182,19.853C166,434.102,166,469.295,166,492z
			 M286,492H186v-23h100V492z M286,449H186v-30.483c16.126,4.963,32.884,7.483,50,7.483c17.116,0,33.873-2.52,50-7.483V449z
			 M327.124,492H306c0-22.705,0-57.897,0-81.058c11.726-5.317,22.901-12.001,33.182-19.852L327.124,492z M236,406
			c-82.689,0-150-66.996-150-150c0-83.218,67.53-150,150-150c82.311,0,150,66.598,150,150C386,339.215,318.542,406,236,406z
			 M416,266h-10.3c0.193-3.327,0.3-6.667,0.3-10s-0.106-6.673-0.3-10H416c5.514,0,10,4.486,10,10C426,261.522,421.521,266,416,266z"
			/>
	</g>
</g>
<g>
</g>
<g>
</g>
<g>
</g>
<g>
</g>
<g>
</g>
<g>
</g>
<g>
</g>
<g>
</g>
<g>
</g>
<g>
</g>
<g>
</g>
<g>
</g>
<g>
</g>
<g>
</g>
<g>
</g>
</svg>
